# xmcd
#
# Track frame offsets:
#	150
#	9458
#	20728
#	33737
#	46339
#	56721
#	68216
#	78177
#	85708
#	96342
#	106552
#	119661
#
# Disc length: 1767 seconds
#
# Revision: 1
# Processed by: cddbd v1.5.2PL0 Copyright (c) Steve Scherf et al.
# Submitted via: audiograbber 1.83.01
#
DISCID=9606e50c
DTITLE=Faron Young - Hillbilly Heartthrob
DYEAR=2008
DGENRE=Country
TTITLE0=Hello Walls
TTITLE1=You're Still Mine
TTITLE2=Three Days
TTITLE3=Country Girl
TTITLE4=Alone With You
TTITLE5=Riverboat
TTITLE6=Congratulations
TTITLE7=Back Track
TTITLE8=Face To The Wall
TTITLE9=If You Ain't Lovin'
TTITLE10=I'm A Free Man Now
TTITLE11=It's Four In The Morning
EXTD=
EXTT0=
EXTT1=
EXTT2=
EXTT3=
EXTT4=
EXTT5=
EXTT6=
EXTT7=
EXTT8=
EXTT9=
EXTT10=
EXTT11=
PLAYORDER=
